<svg width="29" height="30" viewBox="0 0 29 30" fill="none" xmlns="http://www.w3.org/2000/svg">
<path d="M3.07684 28.6876H25.9221C27.0692 28.6876 27.999 27.7578 27.999 26.6108V3.76591C27.999 2.61892 27.0692 1.6891 25.9221 1.6891H3.07684C1.92983 1.6891 1 2.61892 1 3.76591V26.6108C1 27.7578 1.92983 28.6876 3.07684 28.6876Z" stroke="#0275FF" stroke-width="2" stroke-linecap="round" stroke-linejoin="round"/>
<path d="M3.59708 28.6865L18.758 14.398C18.9446 14.2426 19.1798 14.1575 19.4226 14.1575C19.6655 14.1575 19.9006 14.2426 20.0872 14.398L28 20.0677" stroke="#0275FF" stroke-width="2" stroke-linecap="round" stroke-linejoin="round"/>
<path d="M9.30679 13.1109C11.0273 13.1109 12.4221 11.7162 12.4221 9.99573C12.4221 8.27524 11.0273 6.88052 9.30679 6.88052C7.58627 6.88052 6.19153 8.27524 6.19153 9.99573C6.19153 11.7162 7.58627 13.1109 9.30679 13.1109Z" stroke="#0275FF" stroke-width="2" stroke-linecap="round" stroke-linejoin="round"/>
</svg>
