<svg width="38" height="25" viewBox="0 0 38 25" fill="none" xmlns="http://www.w3.org/2000/svg">
<path d="M2 5.5C2 3.85008 2 3.02513 2.55951 2.51256C3.11904 2 4.01957 2 5.82063 2H26.6996C27.7006 2 28.2011 2 28.6235 2.20708C29.0459 2.41414 29.3234 2.7956 29.8786 3.55855L34.9728 10.5586C35.6577 11.4995 36 11.9701 36 12.5C36 13.0299 35.6577 13.5005 34.9728 14.4414L29.8786 21.4414C29.3234 22.2044 29.0459 22.5858 28.6235 22.793C28.2011 23 27.7006 23 26.6996 23H5.82063C4.01957 23 3.11904 23 2.55951 22.4874C2 21.9748 2 21.1499 2 19.5V5.5Z" stroke="#0275FF" stroke-width="3"/>
<path d="M24.5 15C25.8807 15 27 13.8807 27 12.5C27 11.1193 25.8807 10 24.5 10C23.1193 10 22 11.1193 22 12.5C22 13.8807 23.1193 15 24.5 15Z" fill="#0275FF" stroke="#0275FF" stroke-width="3"/>
</svg>
