<svg width="29" height="28" viewBox="0 0 29 28" fill="none" xmlns="http://www.w3.org/2000/svg">
<path d="M4.11603 20.4888V16.3351C4.11603 15.7843 4.33485 15.2561 4.72434 14.8666C5.11385 14.4771 5.64211 14.2583 6.19296 14.2583H22.8084C23.3592 14.2583 23.8876 14.4771 24.277 14.8666C24.6664 15.2561 24.8853 15.7843 24.8853 16.3351V20.4888" stroke="#0275FF" stroke-width="2" stroke-linecap="round" stroke-linejoin="round"/>
<path d="M14.5 8.02768V20.4887" stroke="#0275FF" stroke-width="2" stroke-linecap="round" stroke-linejoin="round"/>
<path d="M11.384 3.87391V5.95075C11.384 7.09775 12.3139 8.02759 13.461 8.02759H15.5379C16.6849 8.02759 17.6148 7.09775 17.6148 5.95075V3.87391C17.6148 2.72692 16.6849 1.79707 15.5379 1.79707H13.461C12.3139 1.79707 11.384 2.72692 11.384 3.87391Z" stroke="#0275FF" stroke-width="2" stroke-linecap="round" stroke-linejoin="round"/>
<path d="M11.384 22.5657V24.6426C11.384 25.7896 12.3139 26.7194 13.461 26.7194H15.5379C16.6849 26.7194 17.6148 25.7896 17.6148 24.6426V22.5657C17.6148 21.4187 16.6849 20.4889 15.5379 20.4889H13.461C12.3139 20.4889 11.384 21.4187 11.384 22.5657Z" stroke="#0275FF" stroke-width="2" stroke-linecap="round" stroke-linejoin="round"/>
<path d="M1 22.5657V24.6426C1 25.7896 1.92987 26.7194 3.07693 26.7194H5.15386C6.30091 26.7194 7.23079 25.7896 7.23079 24.6426V22.5657C7.23079 21.4187 6.30091 20.4889 5.15386 20.4889H3.07693C1.92987 20.4889 1 21.4187 1 22.5657Z" stroke="#0275FF" stroke-width="2" stroke-linecap="round" stroke-linejoin="round"/>
<path d="M21.7692 22.5657V24.6426C21.7692 25.7896 22.699 26.7194 23.8461 26.7194H25.9231C27.0701 26.7194 28 25.7896 28 24.6426V22.5657C28 21.4187 27.0701 20.4889 25.9231 20.4889H23.8461C22.699 20.4889 21.7692 21.4187 21.7692 22.5657Z" stroke="#0275FF" stroke-width="2" stroke-linecap="round" stroke-linejoin="round"/>
</svg>
