<svg width="16" height="16" viewBox="0 0 16 16" fill="none" xmlns="http://www.w3.org/2000/svg">
<path d="M2.4231 15.0833C2.00751 15.0833 1.65254 14.9361 1.35821 14.6418C1.06386 14.3474 0.916687 13.9925 0.916687 13.5769V2.42307C0.916687 2.00748 1.06386 1.65251 1.35821 1.35818C1.65254 1.06383 2.00751 0.916656 2.4231 0.916656H13.5769C13.9925 0.916656 14.3475 1.06383 14.6418 1.35818C14.9361 1.65251 15.0833 2.00748 15.0833 2.42307V13.5769C15.0833 13.9925 14.9361 14.3474 14.6418 14.6418C14.3475 14.9361 13.9925 15.0833 13.5769 15.0833H2.4231ZM6.54169 13.8333V8.62495H2.16667V13.5769C2.16667 13.6517 2.19071 13.7131 2.23879 13.7612C2.28687 13.8093 2.34831 13.8333 2.4231 13.8333H6.54169ZM7.79165 13.8333H13.5769C13.6517 13.8333 13.7131 13.8093 13.7612 13.7612C13.8093 13.7131 13.8333 13.6517 13.8333 13.5769V8.62495H7.79165V13.8333ZM2.16667 7.37499H13.8333V2.42307C13.8333 2.34828 13.8093 2.28684 13.7612 2.23876C13.7131 2.19068 13.6517 2.16664 13.5769 2.16664H2.4231C2.34831 2.16664 2.28687 2.19068 2.23879 2.23876C2.19071 2.28684 2.16667 2.34828 2.16667 2.42307V7.37499Z" fill="#0275FF"/>
</svg>
